<?xml version="1.0" encoding="utf-8"?>
<svg xmlns:xlink="http://www.w3.org/1999/xlink" width="720.703px" height="720.703px" viewBox="0 0 720.703 720.703"
     version="1.1" xmlns="http://www.w3.org/2000/svg">
    <path d="M420.351 34.6407L612.426 145.535Q614.126 146.517 615.794 147.554Q617.461 148.591 619.094 149.682Q620.727 150.773 622.323 151.916Q623.919 153.06 625.477 154.256Q627.035 155.451 628.553 156.697Q630.07 157.942 631.547 159.237Q633.023 160.532 634.456 161.874Q635.89 163.217 637.278 164.605Q638.667 165.994 640.009 167.427Q641.352 168.86 642.646 170.336Q643.941 171.813 645.187 173.331Q646.432 174.849 647.628 176.406Q648.823 177.964 649.967 179.56Q651.111 181.157 652.202 182.789Q653.293 184.422 654.329 186.09Q655.366 187.757 656.348 189.458Q657.33 191.158 658.256 192.89Q659.181 194.622 660.05 196.383Q660.918 198.144 661.729 199.933Q662.539 201.721 663.291 203.536Q664.042 205.35 664.734 207.188Q665.425 209.025 666.057 210.885Q666.688 212.744 667.258 214.623Q667.828 216.502 668.336 218.399Q668.844 220.296 669.29 222.208Q669.736 224.121 670.119 226.047Q670.502 227.973 670.822 229.91Q671.142 231.847 671.398 233.794Q671.655 235.741 671.847 237.695Q672.04 239.649 672.168 241.609Q672.297 243.568 672.361 245.531Q672.425 247.494 672.425 249.457L672.425 471.246Q672.425 473.209 672.361 475.172Q672.297 477.135 672.168 479.094Q672.04 481.054 671.847 483.008Q671.655 484.962 671.398 486.909Q671.142 488.856 670.822 490.793Q670.502 492.731 670.119 494.656Q669.736 496.582 669.29 498.495Q668.844 500.407 668.336 502.304Q667.828 504.201 667.258 506.08Q666.688 507.959 666.057 509.818Q665.425 511.678 664.734 513.515Q664.042 515.353 663.291 517.167Q662.539 518.982 661.729 520.77Q660.918 522.559 660.05 524.32Q659.181 526.081 658.256 527.813Q657.33 529.545 656.348 531.245Q655.366 532.946 654.33 534.613Q653.293 536.281 652.202 537.914Q651.111 539.546 649.967 541.143Q648.823 542.739 647.628 544.297Q646.432 545.854 645.187 547.372Q643.941 548.89 642.646 550.367Q641.352 551.843 640.009 553.276Q638.667 554.709 637.278 556.098Q635.89 557.486 634.456 558.829Q633.023 560.171 631.547 561.466Q630.07 562.76 628.553 564.006Q627.035 565.252 625.477 566.447Q623.919 567.643 622.323 568.786Q620.727 569.93 619.094 571.021Q617.461 572.112 615.794 573.149Q614.126 574.186 612.426 575.168L420.351 686.062Q418.65 687.044 416.919 687.97Q415.187 688.895 413.426 689.764Q411.665 690.633 409.876 691.443Q408.087 692.253 406.273 693.005Q404.459 693.756 402.621 694.448Q400.783 695.14 398.924 695.771Q397.064 696.402 395.185 696.972Q393.306 697.542 391.409 698.05Q389.513 698.558 387.6 699.004Q385.688 699.45 383.762 699.833Q381.836 700.216 379.899 700.536Q377.961 700.856 376.014 701.113Q374.068 701.369 372.113 701.561Q370.159 701.754 368.2 701.882Q366.24 702.011 364.278 702.075Q362.315 702.139 360.351 702.139Q358.388 702.139 356.425 702.075Q354.463 702.011 352.503 701.882Q350.544 701.754 348.59 701.561Q346.635 701.369 344.688 701.113Q342.742 700.856 340.804 700.536Q338.867 700.216 336.941 699.833Q335.015 699.45 333.103 699.004Q331.19 698.558 329.293 698.05Q327.397 697.542 325.518 696.972Q323.639 696.402 321.779 695.771Q319.92 695.14 318.082 694.448Q316.244 693.756 314.43 693.005Q312.616 692.253 310.827 691.443Q309.038 690.633 307.277 689.764Q305.516 688.895 303.784 687.97Q302.053 687.044 300.352 686.062L108.277 575.168Q106.577 574.186 104.909 573.149Q103.242 572.112 101.609 571.021Q99.9763 569.93 98.3802 568.787Q96.784 567.643 95.2262 566.447Q93.6683 565.252 92.1504 564.006Q90.6324 562.76 89.1561 561.466Q87.6797 560.171 86.2465 558.829Q84.8133 557.486 83.4248 556.098Q82.0363 554.709 80.694 553.276Q79.3516 551.843 78.0569 550.367Q76.7622 548.89 75.5164 547.372Q74.2707 545.854 73.0753 544.297Q71.8799 542.739 70.7361 541.142Q69.5923 539.546 68.5014 537.914Q67.4105 536.281 66.3735 534.613Q65.3366 532.946 64.3547 531.245Q63.3729 529.545 62.4473 527.813Q61.5216 526.081 60.6531 524.32Q59.7846 522.559 58.9742 520.77Q58.1638 518.982 57.4123 517.167Q56.6609 515.353 55.9692 513.515Q55.2775 511.678 54.6463 509.818Q54.0151 507.959 53.445 506.08Q52.875 504.201 52.3668 502.304Q51.8586 500.407 51.4127 498.495Q50.9668 496.582 50.5837 494.656Q50.2006 492.731 49.8807 490.793Q49.5608 488.856 49.3045 486.909Q49.0482 484.962 48.8558 483.008Q48.6633 481.054 48.5349 479.094Q48.4064 477.135 48.3422 475.172Q48.2779 473.209 48.2779 471.246L48.2779 249.457Q48.2779 247.494 48.3422 245.531Q48.4064 243.568 48.5349 241.609Q48.6633 239.649 48.8558 237.695Q49.0482 235.741 49.3045 233.794Q49.5608 231.847 49.8807 229.91Q50.2006 227.973 50.5837 226.047Q50.9668 224.121 51.4127 222.208Q51.8586 220.296 52.3668 218.399Q52.875 216.502 53.445 214.623Q54.0151 212.744 54.6463 210.885Q55.2775 209.025 55.9692 207.188Q56.6609 205.35 57.4123 203.536Q58.1638 201.721 58.9742 199.933Q59.7846 198.144 60.6531 196.383Q61.5216 194.622 62.4473 192.89Q63.3729 191.158 64.3547 189.458Q65.3366 187.757 66.3735 186.09Q67.4105 184.422 68.5014 182.789Q69.5923 181.157 70.7361 179.561Q71.8799 177.964 73.0753 176.406Q74.2707 174.849 75.5164 173.331Q76.7622 171.813 78.0569 170.336Q79.3516 168.86 80.694 167.427Q82.0363 165.994 83.4248 164.605Q84.8133 163.217 86.2465 161.874Q87.6797 160.532 89.1561 159.237Q90.6324 157.942 92.1504 156.697Q93.6683 155.451 95.2262 154.256Q96.784 153.06 98.3802 151.916Q99.9763 150.773 101.609 149.682Q103.242 148.591 104.909 147.554Q106.577 146.517 108.277 145.535L300.352 34.6407Q302.053 33.6589 303.784 32.7332Q305.516 31.8076 307.277 30.9391Q309.038 30.0706 310.827 29.2602Q312.616 28.4498 314.43 27.6983Q316.244 26.9468 318.082 26.2551Q319.92 25.5634 321.779 24.9322Q323.639 24.301 325.518 23.731Q327.397 23.161 329.293 22.6528Q331.19 22.1446 333.103 21.6987Q335.015 21.2528 336.941 20.8697Q338.867 20.4866 340.804 20.1667Q342.742 19.8468 344.688 19.5905Q346.635 19.3342 348.59 19.1417Q350.544 18.9493 352.503 18.8208Q354.463 18.6924 356.425 18.6282Q358.388 18.5639 360.352 18.5639Q362.315 18.5639 364.278 18.6282Q366.24 18.6924 368.2 18.8208Q370.159 18.9493 372.113 19.1417Q374.068 19.3342 376.015 19.5905Q377.961 19.8468 379.899 20.1667Q381.836 20.4866 383.762 20.8697Q385.688 21.2528 387.6 21.6987Q389.513 22.1446 391.41 22.6528Q393.306 23.161 395.185 23.731Q397.064 24.301 398.924 24.9322Q400.783 25.5634 402.621 26.2551Q404.459 26.9468 406.273 27.6983Q408.087 28.4498 409.876 29.2602Q411.665 30.0706 413.426 30.9391Q415.187 31.8076 416.919 32.7332Q418.65 33.6589 420.351 34.6407L420.351 34.6407Z"
          id="六边形" fill="#444C4F" fill-rule="evenodd" stroke="none"/>
    <g id="Logo" transform="translate(106.64023 83.41501)">
        <path d="M3.74041 245.75Q2.85543 250.017 2.41061 254.352Q1.9658 258.687 1.9658 263.045Q1.9658 264.438 2.01137 265.831Q2.05694 267.223 2.14803 268.614Q2.23912 270.004 2.37564 271.39Q2.51216 272.777 2.69395 274.158Q2.87574 275.539 3.10262 276.914Q3.3295 278.289 3.60122 279.655Q3.87294 281.022 4.18921 282.378Q4.50548 283.735 4.86596 285.081Q5.22644 286.427 5.63074 287.76Q6.03505 289.093 6.48275 290.413Q6.93045 291.732 7.42106 293.036Q7.91167 294.34 8.44467 295.627Q8.97768 296.914 9.5525 298.183Q10.1273 299.453 10.7433 300.702Q11.3594 301.952 12.0159 303.181Q12.6725 304.409 13.3689 305.616Q14.0653 306.823 14.8008 308.006Q15.5363 309.189 16.3102 310.348Q17.084 311.506 17.8953 312.639Q18.7066 313.772 19.5545 314.877Q20.4024 315.983 21.286 317.06Q22.1696 318.137 23.088 319.185Q24.0064 320.232 24.9585 321.249Q25.9107 322.266 26.8956 323.252Q27.8805 324.237 28.8971 325.19Q29.9137 326.142 30.9609 327.061Q32.0082 327.98 33.0849 328.864Q34.1616 329.749 35.2667 330.597Q36.3717 331.445 37.504 332.257Q38.6362 333.069 39.7944 333.844Q40.9526 334.618 42.1354 335.354Q43.3183 336.09 44.5247 336.787L84.8616 360.093L84.9452 360.141L127.131 384.516L193.964 423.131Q195.637 424.098 197.341 425.009Q199.045 425.92 200.777 426.775Q202.51 427.63 204.27 428.428Q206.029 429.226 207.814 429.966Q209.599 430.706 211.407 431.387Q213.215 432.068 215.045 432.689Q216.874 433.311 218.723 433.872Q220.572 434.433 222.438 434.934Q224.304 435.434 226.186 435.873Q228.068 436.312 229.962 436.689Q231.857 437.066 233.764 437.381Q235.67 437.696 237.586 437.949Q239.501 438.201 241.424 438.39Q243.347 438.58 245.275 438.706Q247.203 438.833 249.134 438.896Q251.065 438.959 252.997 438.959Q254.929 438.959 256.86 438.896Q258.791 438.833 260.719 438.706Q262.647 438.58 264.57 438.39Q266.493 438.201 268.409 437.949Q270.324 437.696 272.23 437.381Q274.137 437.066 276.032 436.689Q277.927 436.312 279.808 435.873Q281.69 435.434 283.556 434.934Q285.422 434.433 287.271 433.872Q289.12 433.311 290.949 432.689Q292.779 432.068 294.587 431.387Q296.395 430.706 298.18 429.966Q299.965 429.226 301.725 428.428Q303.484 427.631 305.217 426.776Q306.95 425.92 308.653 425.009Q310.357 424.098 312.03 423.131L370.134 389.559Q375.372 387.358 380.291 384.516L462.898 336.787Q464.104 336.09 465.287 335.354Q466.47 334.618 467.628 333.844Q468.786 333.069 469.918 332.257Q471.051 331.445 472.156 330.597Q473.261 329.749 474.338 328.864Q475.414 327.98 476.462 327.061Q477.509 326.142 478.525 325.19Q479.542 324.237 480.527 323.252Q481.512 322.266 482.464 321.249Q483.416 320.232 484.334 319.185Q485.253 318.137 486.136 317.06Q487.02 315.983 487.868 314.877Q488.716 313.772 489.527 312.639Q490.338 311.506 491.112 310.348Q491.886 309.189 492.622 308.006Q493.357 306.823 494.054 305.616Q494.75 304.409 495.407 303.181Q496.063 301.952 496.679 300.702Q497.295 299.453 497.87 298.183Q498.445 296.914 498.978 295.627Q499.511 294.34 500.001 293.036Q500.492 291.732 500.94 290.413Q501.387 289.093 501.792 287.76Q502.196 286.427 502.556 285.081Q502.917 283.735 503.233 282.378Q503.55 281.022 503.821 279.655Q504.093 278.289 504.32 276.914Q504.547 275.539 504.728 274.158Q504.91 272.777 505.047 271.39Q505.183 270.004 505.274 268.614Q505.366 267.223 505.411 265.831Q505.457 264.438 505.457 263.045Q505.457 258.651 505.004 254.281Q504.552 249.91 503.653 245.61L312.608 355.993Q310.935 356.959 309.231 357.871Q307.528 358.782 305.795 359.637Q304.062 360.492 302.303 361.29Q300.543 362.088 298.758 362.828Q296.973 363.567 295.165 364.248Q293.357 364.929 291.528 365.551Q289.698 366.172 287.849 366.733Q286 367.295 284.134 367.795Q282.268 368.295 280.386 368.734Q278.505 369.173 276.61 369.551Q274.715 369.928 272.809 370.243Q270.902 370.558 268.987 370.81Q267.071 371.062 265.148 371.252Q263.226 371.441 261.298 371.568Q259.37 371.694 257.438 371.757Q255.507 371.821 253.575 371.821Q251.643 371.821 249.712 371.757Q247.781 371.694 245.853 371.568Q243.925 371.441 242.002 371.252Q240.079 371.062 238.164 370.81Q236.248 370.558 234.342 370.243Q232.436 369.928 230.541 369.551Q228.646 369.173 226.764 368.734Q224.882 368.295 223.016 367.795Q221.15 367.295 219.301 366.733Q217.452 366.172 215.623 365.551Q213.793 364.929 211.985 364.248Q210.177 363.567 208.392 362.828Q206.607 362.088 204.848 361.29Q203.088 360.492 201.355 359.637Q199.623 358.782 197.919 357.871Q196.215 356.959 194.542 355.993L3.74041 245.75Z"
              id="中层" fill="#1E88E5" fill-rule="evenodd" stroke="none"/>
        <path d="M4.51681 360.664Q3.63182 364.931 3.18701 369.266Q2.74219 373.601 2.74219 377.959Q2.74219 379.352 2.78776 380.745Q2.83333 382.137 2.92443 383.527Q3.01552 384.918 3.15204 386.304Q3.28855 387.69 3.47035 389.072Q3.65214 390.453 3.87902 391.828Q4.1059 393.202 4.37762 394.569Q4.64934 395.935 4.96561 397.292Q5.28187 398.649 5.64235 399.995Q6.00284 401.34 6.40714 402.674Q6.81145 404.007 7.25915 405.326Q7.70685 406.646 8.19746 407.95Q8.68807 409.254 9.22108 410.541Q9.75408 411.828 10.3289 413.097Q10.9037 414.366 11.5197 415.616Q12.1358 416.865 12.7923 418.094Q13.4489 419.323 14.1453 420.53Q14.8417 421.736 15.5772 422.92Q16.3127 424.103 17.0866 425.262Q17.8604 426.42 18.6717 427.553Q19.483 428.685 20.3309 429.791Q21.1788 430.896 22.0624 431.973Q22.946 433.051 23.8644 434.098Q24.7828 435.146 25.7349 436.163Q26.6871 437.18 27.672 438.165Q28.6569 439.151 29.6735 440.104Q30.6901 441.056 31.7373 441.975Q32.7846 442.894 33.8613 443.778Q34.938 444.662 36.0431 445.511Q37.1482 446.359 38.2804 447.171Q39.4126 447.983 40.5708 448.757Q41.729 449.532 42.9119 450.268Q44.0948 451.004 45.3011 451.701L85.6366 475.006L85.7215 475.055L127.908 499.43L194.741 538.045Q196.414 539.012 198.117 539.923Q199.821 540.834 201.554 541.689Q203.286 542.544 205.046 543.342Q206.806 544.14 208.591 544.88Q210.375 545.62 212.184 546.301Q213.992 546.982 215.821 547.603Q217.651 548.225 219.499 548.786Q221.348 549.347 223.215 549.847Q225.081 550.348 226.962 550.787Q228.844 551.226 230.739 551.603Q232.634 551.98 234.54 552.295Q236.446 552.61 238.362 552.862Q240.278 553.115 242.2 553.304Q244.123 553.494 246.051 553.62Q247.979 553.747 249.91 553.81Q251.841 553.873 253.774 553.873Q255.706 553.873 257.637 553.81Q259.568 553.747 261.496 553.62Q263.424 553.494 265.347 553.304Q267.269 553.115 269.185 552.862Q271.101 552.61 273.007 552.295Q274.913 551.98 276.808 551.603Q278.703 551.226 280.585 550.787Q282.466 550.348 284.333 549.847Q286.199 549.347 288.048 548.786Q289.896 548.225 291.726 547.603Q293.555 546.982 295.363 546.301Q297.172 545.62 298.956 544.88Q300.741 544.14 302.501 543.342Q304.261 542.544 305.993 541.689Q307.726 540.834 309.43 539.923Q311.133 539.012 312.806 538.045L370.911 504.473Q376.148 502.272 381.068 499.43L463.674 451.701Q464.881 451.004 466.063 450.268Q467.246 449.532 468.404 448.757Q469.563 447.983 470.695 447.171Q471.827 446.359 472.932 445.511Q474.037 444.662 475.114 443.778Q476.191 442.894 477.238 441.975Q478.285 441.056 479.302 440.104Q480.318 439.151 481.303 438.165Q482.288 437.18 483.24 436.163Q484.192 435.146 485.111 434.098Q486.029 433.051 486.913 431.973Q487.796 430.896 488.644 429.791Q489.492 428.685 490.304 427.553Q491.115 426.42 491.889 425.262Q492.662 424.103 493.398 422.92Q494.133 421.736 494.83 420.53Q495.526 419.323 496.183 418.094Q496.84 416.865 497.456 415.616Q498.072 414.366 498.646 413.097Q499.221 411.828 499.754 410.541Q500.287 409.254 500.778 407.95Q501.268 406.646 501.716 405.326Q502.164 404.007 502.568 402.674Q502.972 401.34 503.333 399.995Q503.693 398.649 504.01 397.292Q504.326 395.935 504.598 394.569Q504.869 393.202 505.096 391.828Q505.323 390.453 505.505 389.072Q505.687 387.691 505.823 386.304Q505.96 384.918 506.051 383.527Q506.142 382.137 506.188 380.745Q506.233 379.352 506.233 377.959Q506.233 373.565 505.781 369.195Q505.329 364.824 504.429 360.523L313.384 470.906Q311.712 471.873 310.008 472.784Q308.304 473.695 306.571 474.551Q304.839 475.406 303.079 476.203Q301.319 477.001 299.535 477.741Q297.75 478.481 295.942 479.162Q294.133 479.843 292.304 480.465Q290.474 481.086 288.626 481.647Q286.777 482.208 284.911 482.709Q283.044 483.209 281.163 483.648Q279.281 484.087 277.386 484.464Q275.491 484.841 273.585 485.156Q271.679 485.471 269.763 485.724Q267.848 485.976 265.925 486.166Q264.002 486.355 262.074 486.482Q260.146 486.608 258.215 486.671Q256.284 486.734 254.352 486.734Q252.419 486.734 250.488 486.671Q248.557 486.608 246.629 486.482Q244.701 486.355 242.779 486.166Q240.856 485.976 238.94 485.724Q237.025 485.471 235.118 485.156Q233.212 484.841 231.317 484.464Q229.422 484.087 227.54 483.648Q225.659 483.209 223.793 482.709Q221.926 482.208 220.078 481.647Q218.229 481.086 216.399 480.465Q214.57 479.843 212.762 479.162Q210.954 478.481 209.169 477.741Q207.384 477.001 205.624 476.203Q203.864 475.406 202.132 474.551Q200.399 473.695 198.695 472.784Q196.992 471.873 195.319 470.906L4.51681 360.664Z"
              id="下层" fill="#FCBC05" fill-rule="evenodd" stroke="none"/>
        <path d="M312.079 15.8281L351.624 38.6766Q355.793 40.3169 359.672 42.5581L477.44 110.603Q478.29 111.094 479.123 111.612Q479.957 112.131 480.772 112.677Q481.588 113.222 482.386 113.794Q483.184 114.366 483.962 114.964Q484.741 115.562 485.499 116.184Q486.258 116.807 486.996 117.455Q487.733 118.102 488.45 118.773Q489.166 119.444 489.86 120.138Q490.553 120.833 491.224 121.549Q491.895 122.266 492.542 123.004Q493.189 123.742 493.811 124.501Q494.434 125.26 495.031 126.038Q495.629 126.817 496.2 127.615Q496.772 128.413 497.317 129.229Q497.862 130.045 498.38 130.879Q498.898 131.713 499.389 132.563Q499.88 133.413 500.342 134.279Q500.805 135.144 501.239 136.025Q501.673 136.905 502.078 137.799Q502.483 138.693 502.858 139.6Q503.234 140.507 503.579 141.425Q503.925 142.344 504.24 143.273Q504.556 144.203 504.841 145.142Q505.125 146.081 505.379 147.03Q505.633 147.978 505.856 148.934Q506.079 149.889 506.27 150.852Q506.462 151.815 506.622 152.783Q506.781 153.752 506.909 154.725Q507.038 155.698 507.134 156.675Q507.23 157.651 507.294 158.631Q507.358 159.61 507.39 160.591Q507.423 161.572 507.422 162.554Q507.423 163.535 507.39 164.516Q507.358 165.497 507.294 166.477Q507.23 167.456 507.134 168.433Q507.038 169.41 506.909 170.383Q506.781 171.356 506.622 172.324Q506.462 173.293 506.27 174.255Q506.079 175.218 505.856 176.174Q505.633 177.13 505.379 178.078Q505.125 179.026 504.841 179.965Q504.556 180.905 504.24 181.834Q503.925 182.763 503.579 183.682Q503.234 184.601 502.858 185.508Q502.483 186.414 502.078 187.308Q501.673 188.203 501.239 189.083Q500.805 189.963 500.342 190.829Q499.88 191.695 499.389 192.545Q498.898 193.395 498.38 194.228Q497.862 195.062 497.317 195.878Q496.772 196.694 496.2 197.492Q495.629 198.29 495.031 199.069Q494.434 199.848 493.811 200.607Q493.189 201.366 492.542 202.104Q491.895 202.842 491.224 203.558Q490.553 204.275 489.86 204.969Q489.166 205.663 488.45 206.334Q487.733 207.006 486.996 207.653Q486.258 208.3 485.499 208.923Q484.741 209.546 483.962 210.144Q483.184 210.741 482.386 211.313Q481.588 211.885 480.772 212.431Q479.957 212.976 479.123 213.495Q478.29 214.014 477.44 214.505L359.672 282.549Q355.793 284.791 351.624 286.431L312.079 309.279Q310.406 310.246 308.702 311.157Q306.999 312.069 305.266 312.924Q303.534 313.779 301.774 314.577Q300.014 315.374 298.229 316.114Q296.444 316.854 294.636 317.535Q292.828 318.216 290.999 318.838Q289.169 319.459 287.32 320.02Q285.472 320.581 283.605 321.082Q281.739 321.582 279.858 322.021Q277.976 322.46 276.081 322.837Q274.186 323.214 272.28 323.529Q270.373 323.844 268.458 324.097Q266.542 324.349 264.619 324.539Q262.697 324.728 260.769 324.854Q258.841 324.981 256.91 325.044Q254.978 325.107 253.046 325.107Q251.114 325.107 249.183 325.044Q247.252 324.981 245.324 324.855Q243.396 324.728 241.473 324.539Q239.55 324.349 237.635 324.097Q235.719 323.844 233.813 323.529Q231.907 323.214 230.012 322.837Q228.117 322.46 226.235 322.021Q224.354 321.582 222.487 321.082Q220.621 320.581 218.772 320.02Q216.923 319.459 215.094 318.838Q213.264 318.216 211.456 317.535Q209.648 316.854 207.863 316.114Q206.078 315.374 204.319 314.577Q202.559 313.779 200.826 312.924Q199.094 312.069 197.39 311.157Q195.686 310.246 194.013 309.279L147.751 282.549L96.5561 252.97L29.9825 214.505Q29.1327 214.014 28.2993 213.495Q27.466 212.976 26.6501 212.431Q25.8341 211.885 25.0365 211.313Q24.2388 210.741 23.4603 210.144Q22.6818 209.546 21.9233 208.923Q21.1647 208.3 20.4269 207.653Q19.6892 207.006 18.973 206.334Q18.2568 205.663 17.5629 204.969Q16.869 204.275 16.1983 203.558Q15.5275 202.842 14.8805 202.104Q14.2335 201.366 13.611 200.607Q12.9885 199.848 12.3911 199.069Q11.7938 198.29 11.2222 197.492Q10.6507 196.694 10.1055 195.878Q9.56039 195.062 9.04223 194.228Q8.52407 193.395 8.03345 192.545Q7.54283 191.695 7.08028 190.829Q6.61773 189.963 6.18375 189.083Q5.74976 188.203 5.3448 187.309Q4.93984 186.414 4.56434 185.508Q4.18885 184.601 3.84321 183.682Q3.49758 182.763 3.18218 181.834Q2.86677 180.905 2.58194 179.965Q2.29711 179.026 2.04315 178.078Q1.7892 177.13 1.56639 176.174Q1.34358 175.218 1.15215 174.255Q0.960728 173.293 0.800893 172.324Q0.641059 171.356 0.512985 170.383Q0.384912 169.41 0.288737 168.433Q0.192561 167.456 0.128387 166.477Q0.0642134 165.497 0.0321093 164.516Q5.0853e-06 163.535 5.0853e-06 162.554Q5.0853e-06 161.572 0.0321093 160.591Q0.0642135 159.61 0.128388 158.631Q0.192562 157.651 0.288737 156.675Q0.384912 155.698 0.512985 154.725Q0.641059 153.752 0.800893 152.783Q0.960728 151.815 1.15215 150.852Q1.34358 149.889 1.56639 148.934Q1.7892 147.978 2.04315 147.03Q2.29711 146.081 2.58194 145.142Q2.86678 144.203 3.18218 143.273Q3.49758 142.344 3.84321 141.425Q4.18885 140.507 4.56435 139.6Q4.93984 138.693 5.3448 137.799Q5.74976 136.905 6.18375 136.025Q6.61773 135.144 7.08028 134.279Q7.54283 133.413 8.03345 132.563Q8.52407 131.713 9.04223 130.879Q9.56039 130.045 10.1055 129.229Q10.6507 128.413 11.2222 127.615Q11.7938 126.817 12.3911 126.038Q12.9885 125.26 13.611 124.501Q14.2335 123.742 14.8805 123.004Q15.5275 122.266 16.1983 121.549Q16.8691 120.833 17.5629 120.138Q18.2568 119.444 18.973 118.773Q19.6892 118.102 20.427 117.455Q21.1647 116.807 21.9233 116.184Q22.6818 115.562 23.4603 114.964Q24.2388 114.366 25.0365 113.794Q25.8341 113.222 26.6501 112.677Q27.466 112.131 28.2994 111.612Q29.1327 111.094 29.9825 110.603L96.5561 72.1376L147.751 42.5581L147.776 42.5432L194.013 15.8281Q195.686 14.8615 197.39 13.9502Q199.094 13.0389 200.826 12.1838Q202.559 11.3288 204.319 10.5309Q206.079 9.73303 207.863 8.9932Q209.648 8.25336 211.456 7.57237Q213.265 6.89137 215.094 6.26993Q216.923 5.64849 218.772 5.08729Q220.621 4.52608 222.487 4.0257Q224.354 3.52532 226.235 3.08631Q228.117 2.6473 230.012 2.27013Q231.907 1.89296 233.813 1.57803Q235.719 1.2631 237.635 1.01075Q239.55 0.758399 241.473 0.568899Q243.396 0.3794 245.324 0.252953Q247.252 0.126507 249.183 0.0632503Q251.114 -6.64452e-06 253.046 -6.64452e-06Q254.978 -6.64452e-06 256.91 0.0632503Q258.841 0.126507 260.769 0.252953Q262.697 0.3794 264.619 0.568899Q266.542 0.758399 268.458 1.01075Q270.374 1.2631 272.28 1.57803Q274.186 1.89296 276.081 2.27013Q277.976 2.6473 279.858 3.08631Q281.739 3.52532 283.605 4.0257Q285.472 4.52608 287.32 5.08729Q289.169 5.64849 290.999 6.26993Q292.828 6.89137 294.636 7.57237Q296.444 8.25336 298.229 8.9932Q300.014 9.73303 301.774 10.5309Q303.534 11.3288 305.266 12.1838Q306.999 13.0389 308.703 13.9502Q310.406 14.8615 312.079 15.8281Z"
              id="上层" fill="#E94335" fill-rule="evenodd" stroke="none"/>
    </g>
</svg>
